<?xml version="1.0" standalone="no"?>
<!DOCTYPE svg PUBLIC "-//W3C//DTD SVG 20010904//EN"
 "http://www.w3.org/TR/2001/REC-SVG-20010904/DTD/svg10.dtd">
<svg version="1.0" xmlns="http://www.w3.org/2000/svg"
 width="1667.000000pt" height="1667.000000pt" viewBox="0 0 1667.000000 1667.000000"
 preserveAspectRatio="xMidYMid meet">

<g transform="translate(0.000000,1667.000000) scale(0.100000,-0.100000)"
fill="#000000" stroke="none">
<path d="M10020 10991 c-78 -25 -128 -53 -181 -100 -120 -105 -177 -277 -145
-432 48 -229 227 -379 454 -379 135 0 231 38 328 132 148 142 184 355 92 546
-29 60 -119 156 -182 191 -105 60 -256 78 -366 42z"/>
<path d="M5631 10179 c-699 -74 -1332 -514 -1646 -1147 -148 -299 -218 -598
-217 -937 1 -327 65 -609 207 -900 349 -720 1068 -1174 1865 -1177 181 -1 298
11 466 48 522 115 978 429 1284 884 66 98 150 250 150 271 0 8 -94 108 -208
222 l-208 208 -17 -54 c-23 -73 -108 -244 -164 -331 -304 -471 -862 -746
-1411 -697 -220 20 -352 56 -547 150 -383 185 -660 502 -795 910 -54 164 -73
285 -73 471 0 185 19 304 73 470 152 465 525 842 985 994 177 59 545 90 780
67 308 -32 609 -130 860 -282 185 -111 245 -167 1020 -944 418 -419 841 -839
940 -935 417 -401 660 -579 861 -630 307 -79 572 92 638 412 14 67 16 189 16
918 0 719 -2 840 -14 840 -23 0 -186 -60 -247 -90 -62 -32 -219 -136 -261
-174 l-28 -25 -2 -671 -3 -671 -80 55 c-214 148 -413 335 -1163 1092 -748 756
-1050 1049 -1188 1152 -360 271 -816 448 -1282 497 -148 16 -456 18 -591 4z"/>
</g>
</svg>
